# xmcd
#
# Track frame offsets:
#	150
#	21155
#	45352
#	72643
#	101760
#	123067
#	141033
#	163152
#	181259
#	209425
#	228020
#	254193
#
# Disc length: 3647 seconds
#
# Revision: 1
# Processed by: cddbd v1.4PL0 Copyright (c) Steve Scherf et al.
# Submitted via: audiograbber 1.81.03
#
DISCID=a80e3d0c
DTITLE=The Black Crowes - The Southern Harmony And Musical Companion (Remaster)
DYEAR=1992
DGENRE=Rock
TTITLE0=Sting Me
TTITLE1=Remedy
TTITLE2=Thorn In My Pride
TTITLE3=Bad Luck Blue Eyes Goodbye
TTITLE4=Sometimes Salvation
TTITLE5=Hotel Illness
TTITLE6=Black Moon Creeping
TTITLE7=No Speak No Slave
TTITLE8=My Morning Song
TTITLE9=Time Will Tell
TTITLE10=Sting Me (Slow) (Bonus Track)
TTITLE11=99 lbs (Bonus Track)
EXTD=
EXTT0=
EXTT1=
EXTT2=
EXTT3=
EXTT4=
EXTT5=
EXTT6=
EXTT7=
EXTT8=
EXTT9=
EXTT10=
EXTT11=
PLAYORDER=
